<svg xmlns="http://www.w3.org/2000/svg" viewBox="0 0 128 128" fill="none">
  <defs>
    <linearGradient id="bg-gradient" x1="10" y1="10" x2="118" y2="118" gradientUnits="userSpaceOnUse">
      <stop offset="0%" stop-color="#6366f1"/>
      <stop offset="100%" stop-color="#4338ca"/>
    </linearGradient>
    <filter id="shadow" x="0" y="0" width="128" height="128" filterUnits="userSpaceOnUse" color-interpolation-filters="sRGB">
      <feFlood flood-opacity="0" result="BackgroundImageFix"/>
      <feColorMatrix in="SourceAlpha" type="matrix" values="0 0 0 0 0 0 0 0 0 0 0 0 0 0 0 0 0 0 127 0" result="hardAlpha"/>
      <feOffset dy="4"/>
      <feGaussianBlur stdDeviation="3"/>
      <feComposite in2="hardAlpha" operator="out"/>
      <feColorMatrix type="matrix" values="0 0 0 0 0 0 0 0 0 0 0 0 0 0 0 0 0 0 0.15 0"/>
      <feBlend mode="normal" in2="BackgroundImageFix" result="effect1_dropShadow"/>
      <feBlend mode="normal" in="SourceGraphic" in2="effect1_dropShadow" result="shape"/>
    </filter>
  </defs>
  
  <!-- Icon Background Shape -->
  <g filter="url(#shadow)">
    <rect x="16" y="16" width="96" height="96" rx="20" fill="url(#bg-gradient)"/>
    <rect x="16" y="16" width="96" height="96" rx="20" stroke="white" stroke-opacity="0.1" stroke-width="2"/>
  </g>

  <!-- Document Shape -->
  <path d="M42 38H72L90 56V90C90 92.2091 88.2091 94 86 94H42C39.7909 94 38 92.2091 38 90V42C38 39.7909 39.7909 38 42 38Z" fill="white"/>
  
  <!-- Folded Corner -->
  <path d="M72 38V52C72 54.2091 73.7909 56 76 56H90" fill="#E0E7FF"/>

  <!-- M Letter (Stylized) -->
  <path d="M52 60V76M52 60L64 70L76 60M76 60V76" stroke="#4F46E5" stroke-width="5" stroke-linecap="round" stroke-linejoin="round"/>
</svg>